{
    "asset" : {
        "generator" : "Khronos glTF Blender I/O v1.6.16",
        "version" : "2.0"
    },
    "scene" : 0,
    "scenes" : [
        {
            "name" : "Scene",
            "nodes" : [
                0,
                1
            ]
        }
    ],
    "nodes" : [
        {
            "mesh" : 0,
            "name" : "Curve",
            "rotation" : [
                0.7071067690849304,
                0,
                0,
                0.7071068286895752
            ],
            "scale" : [
                20.00031280517578,
                9.99999713897705,
                20.000051498413086
            ]
        },
        {
            "mesh" : 1,
            "name" : "Curve.001",
            "rotation" : [
                0.7071067690849304,
                0,
                0,
                0.7071068286895752
            ],
            "scale" : [
                20.00031280517578,
                11.205193519592285,
                20.00031280517578
            ]
        }
    ],
    "materials" : [
        {
            "doubleSided" : true,
            "name" : "SVGMat.009",
            "pbrMetallicRoughness" : {
                "baseColorFactor" : [
                    1,
                    0.3674983084201813,
                    0.005605391692370176,
                    1
                ],
                "metallicFactor" : 0.5,
                "roughnessFactor" : 0.20000000298023224
            }
        }
    ],
    "meshes" : [
        {
            "name" : "Curve.018",
            "primitives" : [
                {
                    "attributes" : {
                        "POSITION" : 0,
                        "NORMAL" : 1,
                        "TEXCOORD_0" : 2
                    },
                    "indices" : 3,
                    "material" : 0
                }
            ]
        },
        {
            "name" : "Curve.019",
            "primitives" : [
                {
                    "attributes" : {
                        "POSITION" : 4,
                        "NORMAL" : 5,
                        "TEXCOORD_0" : 6
                    },
                    "indices" : 7,
                    "material" : 0
                }
            ]
        }
    ],
    "accessors" : [
        {
            "bufferView" : 0,
            "componentType" : 5126,
            "count" : 1205,
            "max" : [
                0.0024665072560310364,
                0.00030000010156072676,
                -0.001515722251497209
            ],
            "min" : [
                0.0006222733645699918,
                0,
                -0.003353467443957925
            ],
            "type" : "VEC3"
        },
        {
            "bufferView" : 1,
            "componentType" : 5126,
            "count" : 1205,
            "type" : "VEC3"
        },
        {
            "bufferView" : 2,
            "componentType" : 5126,
            "count" : 1205,
            "type" : "VEC2"
        },
        {
            "bufferView" : 3,
            "componentType" : 5123,
            "count" : 2160,
            "type" : "SCALAR"
        },
        {
            "bufferView" : 4,
            "componentType" : 5126,
            "count" : 1448,
            "max" : [
                0.003705983515828848,
                0.00026773300487548113,
                -0.0002765074896160513
            ],
            "min" : [
                0.001991274766623974,
                0,
                -0.001990854274481535
            ],
            "type" : "VEC3"
        },
        {
            "bufferView" : 5,
            "componentType" : 5126,
            "count" : 1448,
            "type" : "VEC3"
        },
        {
            "bufferView" : 6,
            "componentType" : 5126,
            "count" : 1448,
            "type" : "VEC2"
        },
        {
            "bufferView" : 7,
            "componentType" : 5123,
            "count" : 2592,
            "type" : "SCALAR"
        }
    ],
    "bufferViews" : [
        {
            "buffer" : 0,
            "byteLength" : 14460,
            "byteOffset" : 0
        },
        {
            "buffer" : 0,
            "byteLength" : 14460,
            "byteOffset" : 14460
        },
        {
            "buffer" : 0,
            "byteLength" : 9640,
            "byteOffset" : 28920
        },
        {
            "buffer" : 0,
            "byteLength" : 4320,
            "byteOffset" : 38560
        },
        {
            "buffer" : 0,
            "byteLength" : 17376,
            "byteOffset" : 42880
        },
        {
            "buffer" : 0,
            "byteLength" : 17376,
            "byteOffset" : 60256
        },
        {
            "buffer" : 0,
            "byteLength" : 11584,
            "byteOffset" : 77632
        },
        {
            "buffer" : 0,
            "byteLength" : 5184,
            "byteOffset" : 89216
        }
    ],
    "buffers" : [
        {
            "byteLength" : 94400,
            "uri" : "data:application/octet-stream;base64,"
        }
    ]
}
