{
    "asset" : {
        "generator" : "Khronos glTF Blender I/O v1.6.16",
        "version" : "2.0"
    },
    "scene" : 0,
    "scenes" : [
        {
            "name" : "Scene",
            "nodes" : [
                0,
                1
            ]
        }
    ],
    "nodes" : [
        {
            "mesh" : 0,
            "name" : "Curve.007",
            "rotation" : [
                0.7071067690849304,
                0,
                0,
                0.7071068286895752
            ],
            "scale" : [
                29.99994468688965,
                30,
                30
            ],
            "translation" : [
                0.2751501202583313,
                -0.004551602061837912,
                0.0033295350149273872
            ]
        },
        {
            "mesh" : 1,
            "name" : "Curve.008",
            "rotation" : [
                0.7071067690849304,
                0,
                0,
                0.7071068286895752
            ],
            "scale" : [
                29.99969482421875,
                30,
                30
            ],
            "translation" : [
                0.2751501202583313,
                -0.004551602061837912,
                0.0033295350149273872
            ]
        }
    ],
    "materials" : [
        {
            "doubleSided" : true,
            "name" : "SVGMat.016",
            "pbrMetallicRoughness" : {
                "baseColorFactor" : [
                    0.022874686866998672,
                    0.17335522174835205,
                    0.007732059340924025,
                    1
                ],
                "metallicFactor" : 0.699999988079071,
                "roughnessFactor" : 0
            }
        }
    ],
    "meshes" : [
        {
            "name" : "Curve.018",
            "primitives" : [
                {
                    "attributes" : {
                        "POSITION" : 0,
                        "NORMAL" : 1,
                        "TEXCOORD_0" : 2
                    },
                    "indices" : 3,
                    "material" : 0
                }
            ]
        },
        {
            "name" : "Curve.019",
            "primitives" : [
                {
                    "attributes" : {
                        "POSITION" : 4,
                        "NORMAL" : 5,
                        "TEXCOORD_0" : 6
                    },
                    "indices" : 7,
                    "material" : 0
                }
            ]
        }
    ],
    "accessors" : [
        {
            "bufferView" : 0,
            "componentType" : 5126,
            "count" : 1936,
            "max" : [
                0.0038580948021262884,
                0.0005006305873394012,
                -0.0006221419316716492
            ],
            "min" : [
                0.00012445467291399837,
                0,
                -0.0032351380214095116
            ],
            "type" : "VEC3"
        },
        {
            "bufferView" : 1,
            "componentType" : 5126,
            "count" : 1936,
            "type" : "VEC3"
        },
        {
            "bufferView" : 2,
            "componentType" : 5126,
            "count" : 1936,
            "type" : "VEC2"
        },
        {
            "bufferView" : 3,
            "componentType" : 5123,
            "count" : 3306,
            "type" : "SCALAR"
        },
        {
            "bufferView" : 4,
            "componentType" : 5126,
            "count" : 200,
            "max" : [
                0.0025670721661299467,
                0.0005006305873394012,
                -0.002133946632966399
            ],
            "min" : [
                0.0014206271152943373,
                0,
                -0.002202382544055581
            ],
            "type" : "VEC3"
        },
        {
            "bufferView" : 5,
            "componentType" : 5126,
            "count" : 200,
            "type" : "VEC3"
        },
        {
            "bufferView" : 6,
            "componentType" : 5126,
            "count" : 200,
            "type" : "VEC2"
        },
        {
            "bufferView" : 7,
            "componentType" : 5123,
            "count" : 318,
            "type" : "SCALAR"
        }
    ],
    "bufferViews" : [
        {
            "buffer" : 0,
            "byteLength" : 23232,
            "byteOffset" : 0
        },
        {
            "buffer" : 0,
            "byteLength" : 23232,
            "byteOffset" : 23232
        },
        {
            "buffer" : 0,
            "byteLength" : 15488,
            "byteOffset" : 46464
        },
        {
            "buffer" : 0,
            "byteLength" : 6612,
            "byteOffset" : 61952
        },
        {
            "buffer" : 0,
            "byteLength" : 2400,
            "byteOffset" : 68564
        },
        {
            "buffer" : 0,
            "byteLength" : 2400,
            "byteOffset" : 70964
        },
        {
            "buffer" : 0,
            "byteLength" : 1600,
            "byteOffset" : 73364
        },
        {
            "buffer" : 0,
            "byteLength" : 636,
            "byteOffset" : 74964
        }
    ],
    "buffers" : [
        {
            "byteLength" : 75600,
            "uri" : "data:application/octet-stream;base64,"
        }
    ]
}
