{
    "asset" : {
        "generator" : "Khronos glTF Blender I/O v1.6.16",
        "version" : "2.0"
    },
    "scene" : 0,
    "scenes" : [
        {
            "name" : "Scene",
            "nodes" : [
                0,
                1,
                2
            ]
        }
    ],
    "nodes" : [
        {
            "mesh" : 0,
            "name" : "Curve",
            "rotation" : [
                0.7071067690849304,
                0,
                0,
                0.7071068286895752
            ],
            "scale" : [
                30,
                30,
                30
            ]
        },
        {
            "mesh" : 1,
            "name" : "Curve.001",
            "rotation" : [
                0.7071067690849304,
                0,
                0,
                0.7071068286895752
            ],
            "scale" : [
                30,
                30,
                30
            ]
        },
        {
            "mesh" : 2,
            "name" : "Curve.002",
            "rotation" : [
                0.7071067690849304,
                0,
                0,
                0.7071068286895752
            ],
            "scale" : [
                30,
                30,
                30
            ]
        }
    ],
    "materials" : [
        {
            "doubleSided" : true,
            "name" : "SVGMat.018",
            "pbrMetallicRoughness" : {
                "baseColorFactor" : [
                    0.0015006120083853602,
                    1,
                    0.6169002056121826,
                    1
                ],
                "metallicFactor" : 1,
                "roughnessFactor" : 0
            }
        }
    ],
    "meshes" : [
        {
            "name" : "Curve.020",
            "primitives" : [
                {
                    "attributes" : {
                        "POSITION" : 0,
                        "NORMAL" : 1,
                        "TEXCOORD_0" : 2
                    },
                    "indices" : 3,
                    "material" : 0
                }
            ]
        },
        {
            "name" : "Curve.021",
            "primitives" : [
                {
                    "attributes" : {
                        "POSITION" : 4,
                        "NORMAL" : 5,
                        "TEXCOORD_0" : 6
                    },
                    "indices" : 7,
                    "material" : 0
                }
            ]
        },
        {
            "name" : "Curve.022",
            "primitives" : [
                {
                    "attributes" : {
                        "POSITION" : 8,
                        "NORMAL" : 9,
                        "TEXCOORD_0" : 10
                    },
                    "indices" : 11,
                    "material" : 0
                }
            ]
        }
    ],
    "accessors" : [
        {
            "bufferView" : 0,
            "componentType" : 5126,
            "count" : 1536,
            "max" : [
                0.002364638727158308,
                0.0006878912099637091,
                -0.0006221419316716492
            ],
            "min" : [
                0.00012445467291399837,
                0,
                -0.003732851706445217
            ],
            "type" : "VEC3"
        },
        {
            "bufferView" : 1,
            "componentType" : 5126,
            "count" : 1536,
            "type" : "VEC3"
        },
        {
            "bufferView" : 2,
            "componentType" : 5126,
            "count" : 1536,
            "type" : "VEC2"
        },
        {
            "bufferView" : 3,
            "componentType" : 5123,
            "count" : 2760,
            "type" : "SCALAR"
        },
        {
            "bufferView" : 4,
            "componentType" : 5126,
            "count" : 500,
            "max" : [
                0.003982549533247948,
                0.0006878912099637091,
                -0.0009024874307215214
            ],
            "min" : [
                0.0024890934582799673,
                0,
                -0.0034806893672794104
            ],
            "type" : "VEC3"
        },
        {
            "bufferView" : 5,
            "componentType" : 5126,
            "count" : 500,
            "type" : "VEC3"
        },
        {
            "bufferView" : 6,
            "componentType" : 5126,
            "count" : 500,
            "type" : "VEC2"
        },
        {
            "bufferView" : 7,
            "componentType" : 5123,
            "count" : 876,
            "type" : "SCALAR"
        },
        {
            "bufferView" : 8,
            "componentType" : 5126,
            "count" : 321,
            "max" : [
                0.003982549533247948,
                0.0006878912099637091,
                -0.0004977135686203837
            ],
            "min" : [
                0.0029869121499359608,
                0,
                -0.0007465703529305756
            ],
            "type" : "VEC3"
        },
        {
            "bufferView" : 9,
            "componentType" : 5126,
            "count" : 321,
            "type" : "VEC3"
        },
        {
            "bufferView" : 10,
            "componentType" : 5126,
            "count" : 321,
            "type" : "VEC2"
        },
        {
            "bufferView" : 11,
            "componentType" : 5123,
            "count" : 564,
            "type" : "SCALAR"
        }
    ],
    "bufferViews" : [
        {
            "buffer" : 0,
            "byteLength" : 18432,
            "byteOffset" : 0
        },
        {
            "buffer" : 0,
            "byteLength" : 18432,
            "byteOffset" : 18432
        },
        {
            "buffer" : 0,
            "byteLength" : 12288,
            "byteOffset" : 36864
        },
        {
            "buffer" : 0,
            "byteLength" : 5520,
            "byteOffset" : 49152
        },
        {
            "buffer" : 0,
            "byteLength" : 6000,
            "byteOffset" : 54672
        },
        {
            "buffer" : 0,
            "byteLength" : 6000,
            "byteOffset" : 60672
        },
        {
            "buffer" : 0,
            "byteLength" : 4000,
            "byteOffset" : 66672
        },
        {
            "buffer" : 0,
            "byteLength" : 1752,
            "byteOffset" : 70672
        },
        {
            "buffer" : 0,
            "byteLength" : 3852,
            "byteOffset" : 72424
        },
        {
            "buffer" : 0,
            "byteLength" : 3852,
            "byteOffset" : 76276
        },
        {
            "buffer" : 0,
            "byteLength" : 2568,
            "byteOffset" : 80128
        },
        {
            "buffer" : 0,
            "byteLength" : 1128,
            "byteOffset" : 82696
        }
    ],
    "buffers" : [
        {
            "byteLength" : 83824,
            "uri" : "data:application/octet-stream;base64,"
        }
    ]
}
