{
    "asset" : {
        "generator" : "Khronos glTF Blender I/O v1.6.16",
        "version" : "2.0"
    },
    "scene" : 0,
    "scenes" : [
        {
            "name" : "Scene",
            "nodes" : [
                0,
                1,
                2,
                3
            ]
        }
    ],
    "nodes" : [
        {
            "mesh" : 0,
            "name" : "Curve",
            "rotation" : [
                0.5,
                0.5,
                -0.4999999701976776,
                0.5000000596046448
            ],
            "scale" : [
                30.011693954467773,
                30.011693954467773,
                30.011693954467773
            ]
        },
        {
            "mesh" : 1,
            "name" : "Curve.001",
            "rotation" : [
                0.5,
                0.5,
                -0.4999999701976776,
                0.5000000596046448
            ],
            "scale" : [
                30.011693954467773,
                30.011693954467773,
                30.011693954467773
            ]
        },
        {
            "mesh" : 2,
            "name" : "Curve.002",
            "rotation" : [
                0.5,
                0.5,
                -0.4999999701976776,
                0.5000000596046448
            ],
            "scale" : [
                30.011693954467773,
                30.011693954467773,
                30.011693954467773
            ]
        },
        {
            "mesh" : 3,
            "name" : "Curve.003",
            "rotation" : [
                0.5,
                0.5,
                -0.4999999701976776,
                0.5000000596046448
            ],
            "scale" : [
                30.011693954467773,
                30.011693954467773,
                30.011693954467773
            ]
        }
    ],
    "materials" : [
        {
            "doubleSided" : true,
            "name" : "SVGMat.001",
            "pbrMetallicRoughness" : {
                "baseColorFactor" : [
                    1,
                    0.056022994220256805,
                    0.03681078180670738,
                    1
                ],
                "metallicFactor" : 0.5,
                "roughnessFactor" : 0
            }
        }
    ],
    "meshes" : [
        {
            "name" : "Curve",
            "primitives" : [
                {
                    "attributes" : {
                        "POSITION" : 0,
                        "NORMAL" : 1,
                        "TEXCOORD_0" : 2
                    },
                    "indices" : 3,
                    "material" : 0
                }
            ]
        },
        {
            "name" : "Curve.001",
            "primitives" : [
                {
                    "attributes" : {
                        "POSITION" : 4,
                        "NORMAL" : 5,
                        "TEXCOORD_0" : 6
                    },
                    "indices" : 7,
                    "material" : 0
                }
            ]
        },
        {
            "name" : "Curve.002",
            "primitives" : [
                {
                    "attributes" : {
                        "POSITION" : 8,
                        "NORMAL" : 9,
                        "TEXCOORD_0" : 10
                    },
                    "indices" : 11,
                    "material" : 0
                }
            ]
        },
        {
            "name" : "Curve.003",
            "primitives" : [
                {
                    "attributes" : {
                        "POSITION" : 12,
                        "NORMAL" : 13,
                        "TEXCOORD_0" : 14
                    },
                    "indices" : 15,
                    "material" : 0
                }
            ]
        }
    ],
    "accessors" : [
        {
            "bufferView" : 0,
            "componentType" : 5126,
            "count" : 1152,
            "max" : [
                0.003399557201191783,
                0.0003178823390044272,
                -0.00023641393636353314
            ],
            "min" : [
                0.000172680796822533,
                0,
                -0.0028433038387447596
            ],
            "type" : "VEC3"
        },
        {
            "bufferView" : 1,
            "componentType" : 5126,
            "count" : 1152,
            "type" : "VEC3"
        },
        {
            "bufferView" : 2,
            "componentType" : 5126,
            "count" : 1152,
            "type" : "VEC2"
        },
        {
            "bufferView" : 3,
            "componentType" : 5123,
            "count" : 1740,
            "type" : "SCALAR"
        },
        {
            "bufferView" : 4,
            "componentType" : 5126,
            "count" : 633,
            "max" : [
                0.0012238837080076337,
                0.0003178823390044272,
                -0.0015157220186665654
            ],
            "min" : [
                0.000646242406219244,
                0,
                -0.0020892880856990814
            ],
            "type" : "VEC3"
        },
        {
            "bufferView" : 5,
            "componentType" : 5126,
            "count" : 633,
            "type" : "VEC3"
        },
        {
            "bufferView" : 6,
            "componentType" : 5126,
            "count" : 633,
            "type" : "VEC2"
        },
        {
            "bufferView" : 7,
            "componentType" : 5123,
            "count" : 1008,
            "type" : "SCALAR"
        },
        {
            "bufferView" : 8,
            "componentType" : 5126,
            "count" : 615,
            "max" : [
                0.002095066476613283,
                0.0003178823390044272,
                -0.0015157220186665654
            ],
            "min" : [
                0.0015174251748248935,
                0,
                -0.0020892880856990814
            ],
            "type" : "VEC3"
        },
        {
            "bufferView" : 9,
            "componentType" : 5126,
            "count" : 615,
            "type" : "VEC3"
        },
        {
            "bufferView" : 10,
            "componentType" : 5126,
            "count" : 615,
            "type" : "VEC2"
        },
        {
            "bufferView" : 11,
            "componentType" : 5123,
            "count" : 1008,
            "type" : "SCALAR"
        },
        {
            "bufferView" : 12,
            "componentType" : 5126,
            "count" : 630,
            "max" : [
                0.002966248895972967,
                0.0003178823390044272,
                -0.0015157220186665654
            ],
            "min" : [
                0.002388607943430543,
                0,
                -0.0020892880856990814
            ],
            "type" : "VEC3"
        },
        {
            "bufferView" : 13,
            "componentType" : 5126,
            "count" : 630,
            "type" : "VEC3"
        },
        {
            "bufferView" : 14,
            "componentType" : 5126,
            "count" : 630,
            "type" : "VEC2"
        },
        {
            "bufferView" : 15,
            "componentType" : 5123,
            "count" : 1008,
            "type" : "SCALAR"
        }
    ],
    "bufferViews" : [
        {
            "buffer" : 0,
            "byteLength" : 13824,
            "byteOffset" : 0
        },
        {
            "buffer" : 0,
            "byteLength" : 13824,
            "byteOffset" : 13824
        },
        {
            "buffer" : 0,
            "byteLength" : 9216,
            "byteOffset" : 27648
        },
        {
            "buffer" : 0,
            "byteLength" : 3480,
            "byteOffset" : 36864
        },
        {
            "buffer" : 0,
            "byteLength" : 7596,
            "byteOffset" : 40344
        },
        {
            "buffer" : 0,
            "byteLength" : 7596,
            "byteOffset" : 47940
        },
        {
            "buffer" : 0,
            "byteLength" : 5064,
            "byteOffset" : 55536
        },
        {
            "buffer" : 0,
            "byteLength" : 2016,
            "byteOffset" : 60600
        },
        {
            "buffer" : 0,
            "byteLength" : 7380,
            "byteOffset" : 62616
        },
        {
            "buffer" : 0,
            "byteLength" : 7380,
            "byteOffset" : 69996
        },
        {
            "buffer" : 0,
            "byteLength" : 4920,
            "byteOffset" : 77376
        },
        {
            "buffer" : 0,
            "byteLength" : 2016,
            "byteOffset" : 82296
        },
        {
            "buffer" : 0,
            "byteLength" : 7560,
            "byteOffset" : 84312
        },
        {
            "buffer" : 0,
            "byteLength" : 7560,
            "byteOffset" : 91872
        },
        {
            "buffer" : 0,
            "byteLength" : 5040,
            "byteOffset" : 99432
        },
        {
            "buffer" : 0,
            "byteLength" : 2016,
            "byteOffset" : 104472
        }
    ],
    "buffers" : [
        {
            "byteLength" : 106488,
            "uri" : "data:application/octet-stream;base64,"
        }
    ]
}
