{
    "asset" : {
        "generator" : "Khronos glTF Blender I/O v1.6.16",
        "version" : "2.0"
    },
    "scene" : 0,
    "scenes" : [
        {
            "name" : "Scene",
            "nodes" : [
                0,
                1,
                2,
                3,
                4,
                5,
                6
            ]
        }
    ],
    "nodes" : [
        {
            "mesh" : 0,
            "name" : "Curve",
            "rotation" : [
                0.7071067690849304,
                0,
                0,
                0.7071068286895752
            ],
            "scale" : [
                19.748220443725586,
                19.748220443725586,
                19.748220443725586
            ]
        },
        {
            "mesh" : 1,
            "name" : "Curve.001",
            "rotation" : [
                0.7071067690849304,
                0,
                0,
                0.7071068286895752
            ],
            "scale" : [
                19.748220443725586,
                19.748220443725586,
                19.748220443725586
            ]
        },
        {
            "mesh" : 2,
            "name" : "Curve.002",
            "rotation" : [
                0.7071067690849304,
                0,
                0,
                0.7071068286895752
            ],
            "scale" : [
                19.748220443725586,
                19.748220443725586,
                19.748220443725586
            ]
        },
        {
            "mesh" : 3,
            "name" : "Curve.003",
            "rotation" : [
                0.7071067690849304,
                0,
                0,
                0.7071068286895752
            ],
            "scale" : [
                19.748220443725586,
                19.748220443725586,
                19.748220443725586
            ]
        },
        {
            "mesh" : 4,
            "name" : "Curve.004",
            "rotation" : [
                0.7071067690849304,
                0,
                0,
                0.7071068286895752
            ],
            "scale" : [
                19.748220443725586,
                19.748220443725586,
                19.748220443725586
            ]
        },
        {
            "mesh" : 5,
            "name" : "Curve.005",
            "rotation" : [
                0.7071067690849304,
                0,
                0,
                0.7071068286895752
            ],
            "scale" : [
                19.748220443725586,
                19.748220443725586,
                19.748220443725586
            ]
        },
        {
            "mesh" : 6,
            "name" : "Curve.006",
            "rotation" : [
                0.7071067690849304,
                0,
                0,
                0.7071068286895752
            ],
            "scale" : [
                19.748220443725586,
                19.748220443725586,
                19.748220443725586
            ]
        }
    ],
    "materials" : [
        {
            "doubleSided" : true,
            "name" : "SVGMat.007",
            "pbrMetallicRoughness" : {
                "baseColorFactor" : [
                    0.056088101118803024,
                    0.028772013261914253,
                    0.6981911063194275,
                    1
                ],
                "metallicFactor" : 0.5,
                "roughnessFactor" : 0.20000000298023224
            }
        }
    ],
    "meshes" : [
        {
            "name" : "Curve.011",
            "primitives" : [
                {
                    "attributes" : {
                        "POSITION" : 0,
                        "NORMAL" : 1,
                        "TEXCOORD_0" : 2
                    },
                    "indices" : 3,
                    "material" : 0
                }
            ]
        },
        {
            "name" : "Curve.012",
            "primitives" : [
                {
                    "attributes" : {
                        "POSITION" : 4,
                        "NORMAL" : 5,
                        "TEXCOORD_0" : 6
                    },
                    "indices" : 7,
                    "material" : 0
                }
            ]
        },
        {
            "name" : "Curve.013",
            "primitives" : [
                {
                    "attributes" : {
                        "POSITION" : 8,
                        "NORMAL" : 9,
                        "TEXCOORD_0" : 10
                    },
                    "indices" : 11,
                    "material" : 0
                }
            ]
        },
        {
            "name" : "Curve.014",
            "primitives" : [
                {
                    "attributes" : {
                        "POSITION" : 12,
                        "NORMAL" : 13,
                        "TEXCOORD_0" : 14
                    },
                    "indices" : 15,
                    "material" : 0
                }
            ]
        },
        {
            "name" : "Curve.015",
            "primitives" : [
                {
                    "attributes" : {
                        "POSITION" : 16,
                        "NORMAL" : 17,
                        "TEXCOORD_0" : 18
                    },
                    "indices" : 19,
                    "material" : 0
                }
            ]
        },
        {
            "name" : "Curve.016",
            "primitives" : [
                {
                    "attributes" : {
                        "POSITION" : 20,
                        "NORMAL" : 21,
                        "TEXCOORD_0" : 22
                    },
                    "indices" : 23,
                    "material" : 0
                }
            ]
        },
        {
            "name" : "Curve.017",
            "primitives" : [
                {
                    "attributes" : {
                        "POSITION" : 24,
                        "NORMAL" : 25,
                        "TEXCOORD_0" : 26
                    },
                    "indices" : 27,
                    "material" : 0
                }
            ]
        }
    ],
    "accessors" : [
        {
            "bufferView" : 0,
            "componentType" : 5126,
            "count" : 872,
            "max" : [
                0.003546958090737462,
                0.0003000003343913704,
                -0.0012691696174442768
            ],
            "min" : [
                0.0002608938666526228,
                0,
                -0.0037163260858505964
            ],
            "type" : "VEC3"
        },
        {
            "bufferView" : 1,
            "componentType" : 5126,
            "count" : 872,
            "type" : "VEC3"
        },
        {
            "bufferView" : 2,
            "componentType" : 5126,
            "count" : 872,
            "type" : "VEC2"
        },
        {
            "bufferView" : 3,
            "componentType" : 5123,
            "count" : 1584,
            "type" : "SCALAR"
        },
        {
            "bufferView" : 4,
            "componentType" : 5126,
            "count" : 315,
            "max" : [
                0.003298048861324787,
                0.0003294514026492834,
                -0.002053068485110998
            ],
            "min" : [
                0.0005098031251691282,
                0,
                -0.0034672748297452927
            ],
            "type" : "VEC3"
        },
        {
            "bufferView" : 5,
            "componentType" : 5126,
            "count" : 315,
            "type" : "VEC3"
        },
        {
            "bufferView" : 6,
            "componentType" : 5126,
            "count" : 315,
            "type" : "VEC2"
        },
        {
            "bufferView" : 7,
            "componentType" : 5123,
            "count" : 588,
            "type" : "SCALAR"
        },
        {
            "bufferView" : 8,
            "componentType" : 5126,
            "count" : 766,
            "max" : [
                0.0029869121499359608,
                0.0003294514026492834,
                -0.002239710884168744
            ],
            "min" : [
                0.0018668200355023146,
                0,
                -0.0032351380214095116
            ],
            "type" : "VEC3"
        },
        {
            "bufferView" : 9,
            "componentType" : 5126,
            "count" : 766,
            "type" : "VEC3"
        },
        {
            "bufferView" : 10,
            "componentType" : 5126,
            "count" : 766,
            "type" : "VEC2"
        },
        {
            "bufferView" : 11,
            "componentType" : 5123,
            "count" : 1428,
            "type" : "SCALAR"
        },
        {
            "bufferView" : 12,
            "componentType" : 5126,
            "count" : 237,
            "max" : [
                0.001514068921096623,
                0.0003294514026492834,
                -0.0030049453489482403
            ],
            "min" : [
                0.0009799652034416795,
                0,
                -0.0030858239624649286
            ],
            "type" : "VEC3"
        },
        {
            "bufferView" : 13,
            "componentType" : 5126,
            "count" : 237,
            "type" : "VEC3"
        },
        {
            "bufferView" : 14,
            "componentType" : 5126,
            "count" : 237,
            "type" : "VEC2"
        },
        {
            "bufferView" : 15,
            "componentType" : 5123,
            "count" : 420,
            "type" : "SCALAR"
        },
        {
            "bufferView" : 16,
            "componentType" : 5126,
            "count" : 251,
            "max" : [
                0.0016340509755536914,
                0.0003294514026492834,
                -0.002756088739261031
            ],
            "min" : [
                0.0010173016926273704,
                0,
                -0.0028277505189180374
            ],
            "type" : "VEC3"
        },
        {
            "bufferView" : 17,
            "componentType" : 5126,
            "count" : 251,
            "type" : "VEC3"
        },
        {
            "bufferView" : 18,
            "componentType" : 5126,
            "count" : 251,
            "type" : "VEC2"
        },
        {
            "bufferView" : 19,
            "componentType" : 5123,
            "count" : 420,
            "type" : "SCALAR"
        },
        {
            "bufferView" : 20,
            "componentType" : 5126,
            "count" : 237,
            "max" : [
                0.001514068921096623,
                0.0003294514026492834,
                -0.0025072318967431784
            ],
            "min" : [
                0.0009799652034416795,
                0,
                -0.0025881105102598667
            ],
            "type" : "VEC3"
        },
        {
            "bufferView" : 21,
            "componentType" : 5126,
            "count" : 237,
            "type" : "VEC3"
        },
        {
            "bufferView" : 22,
            "componentType" : 5126,
            "count" : 237,
            "type" : "VEC2"
        },
        {
            "bufferView" : 23,
            "componentType" : 5123,
            "count" : 420,
            "type" : "SCALAR"
        },
        {
            "bufferView" : 24,
            "componentType" : 5126,
            "count" : 241,
            "max" : [
                0.0016340509755536914,
                0.0003294514026492834,
                -0.0022583750542253256
            ],
            "min" : [
                0.0010173016926273704,
                0,
                -0.002330036833882332
            ],
            "type" : "VEC3"
        },
        {
            "bufferView" : 25,
            "componentType" : 5126,
            "count" : 241,
            "type" : "VEC3"
        },
        {
            "bufferView" : 26,
            "componentType" : 5126,
            "count" : 241,
            "type" : "VEC2"
        },
        {
            "bufferView" : 27,
            "componentType" : 5123,
            "count" : 420,
            "type" : "SCALAR"
        }
    ],
    "bufferViews" : [
        {
            "buffer" : 0,
            "byteLength" : 10464,
            "byteOffset" : 0
        },
        {
            "buffer" : 0,
            "byteLength" : 10464,
            "byteOffset" : 10464
        },
        {
            "buffer" : 0,
            "byteLength" : 6976,
            "byteOffset" : 20928
        },
        {
            "buffer" : 0,
            "byteLength" : 3168,
            "byteOffset" : 27904
        },
        {
            "buffer" : 0,
            "byteLength" : 3780,
            "byteOffset" : 31072
        },
        {
            "buffer" : 0,
            "byteLength" : 3780,
            "byteOffset" : 34852
        },
        {
            "buffer" : 0,
            "byteLength" : 2520,
            "byteOffset" : 38632
        },
        {
            "buffer" : 0,
            "byteLength" : 1176,
            "byteOffset" : 41152
        },
        {
            "buffer" : 0,
            "byteLength" : 9192,
            "byteOffset" : 42328
        },
        {
            "buffer" : 0,
            "byteLength" : 9192,
            "byteOffset" : 51520
        },
        {
            "buffer" : 0,
            "byteLength" : 6128,
            "byteOffset" : 60712
        },
        {
            "buffer" : 0,
            "byteLength" : 2856,
            "byteOffset" : 66840
        },
        {
            "buffer" : 0,
            "byteLength" : 2844,
            "byteOffset" : 69696
        },
        {
            "buffer" : 0,
            "byteLength" : 2844,
            "byteOffset" : 72540
        },
        {
            "buffer" : 0,
            "byteLength" : 1896,
            "byteOffset" : 75384
        },
        {
            "buffer" : 0,
            "byteLength" : 840,
            "byteOffset" : 77280
        },
        {
            "buffer" : 0,
            "byteLength" : 3012,
            "byteOffset" : 78120
        },
        {
            "buffer" : 0,
            "byteLength" : 3012,
            "byteOffset" : 81132
        },
        {
            "buffer" : 0,
            "byteLength" : 2008,
            "byteOffset" : 84144
        },
        {
            "buffer" : 0,
            "byteLength" : 840,
            "byteOffset" : 86152
        },
        {
            "buffer" : 0,
            "byteLength" : 2844,
            "byteOffset" : 86992
        },
        {
            "buffer" : 0,
            "byteLength" : 2844,
            "byteOffset" : 89836
        },
        {
            "buffer" : 0,
            "byteLength" : 1896,
            "byteOffset" : 92680
        },
        {
            "buffer" : 0,
            "byteLength" : 840,
            "byteOffset" : 94576
        },
        {
            "buffer" : 0,
            "byteLength" : 2892,
            "byteOffset" : 95416
        },
        {
            "buffer" : 0,
            "byteLength" : 2892,
            "byteOffset" : 98308
        },
        {
            "buffer" : 0,
            "byteLength" : 1928,
            "byteOffset" : 101200
        },
        {
            "buffer" : 0,
            "byteLength" : 840,
            "byteOffset" : 103128
        }
    ],
    "buffers" : [
        {
            "byteLength" : 103968,
            "uri" : "data:application/octet-stream;base64,"
        }
    ]
}
