{
    "asset" : {
        "generator" : "Khronos glTF Blender I/O v1.6.16",
        "version" : "2.0"
    },
    "scene" : 0,
    "scenes" : [
        {
            "name" : "Scene",
            "nodes" : [
                0,
                1,
                2
            ]
        }
    ],
    "nodes" : [
        {
            "mesh" : 0,
            "name" : "Curve",
            "rotation" : [
                0.7071067690849304,
                0,
                0,
                0.7071068286895752
            ],
            "scale" : [
                30,
                30,
                30
            ]
        },
        {
            "mesh" : 1,
            "name" : "Curve.001",
            "rotation" : [
                0.7071067690849304,
                0,
                0,
                0.7071068286895752
            ],
            "scale" : [
                30,
                30,
                30
            ]
        },
        {
            "mesh" : 2,
            "name" : "Curve.002",
            "rotation" : [
                0.7071067690849304,
                0,
                0,
                0.7071068286895752
            ],
            "scale" : [
                30,
                30,
                30
            ]
        }
    ],
    "materials" : [
        {
            "doubleSided" : true,
            "name" : "SVGMat.011",
            "pbrMetallicRoughness" : {
                "baseColorFactor" : [
                    0,
                    0,
                    0,
                    1
                ],
                "metallicFactor" : 0.5,
                "roughnessFactor" : 0
            }
        }
    ],
    "meshes" : [
        {
            "name" : "Curve.012",
            "primitives" : [
                {
                    "attributes" : {
                        "POSITION" : 0,
                        "NORMAL" : 1,
                        "TEXCOORD_0" : 2
                    },
                    "indices" : 3,
                    "material" : 0
                }
            ]
        },
        {
            "name" : "Curve.013",
            "primitives" : [
                {
                    "attributes" : {
                        "POSITION" : 4,
                        "NORMAL" : 5,
                        "TEXCOORD_0" : 6
                    },
                    "indices" : 7,
                    "material" : 0
                }
            ]
        },
        {
            "name" : "Curve.014",
            "primitives" : [
                {
                    "attributes" : {
                        "POSITION" : 8,
                        "NORMAL" : 9,
                        "TEXCOORD_0" : 10
                    },
                    "indices" : 11,
                    "material" : 0
                }
            ]
        }
    ],
    "accessors" : [
        {
            "bufferView" : 0,
            "componentType" : 5126,
            "count" : 2733,
            "max" : [
                0.002730224747210741,
                0.0003511033719405532,
                -1.3998132999404334e-05
            ],
            "min" : [
                0.0011278705205768347,
                0,
                -0.003967709373682737
            ],
            "type" : "VEC3"
        },
        {
            "bufferView" : 1,
            "componentType" : 5126,
            "count" : 2733,
            "type" : "VEC3"
        },
        {
            "bufferView" : 2,
            "componentType" : 5126,
            "count" : 2733,
            "type" : "VEC2"
        },
        {
            "bufferView" : 3,
            "componentType" : 5123,
            "count" : 4464,
            "type" : "SCALAR"
        },
        {
            "bufferView" : 4,
            "componentType" : 5126,
            "count" : 354,
            "max" : [
                0.002067330526188016,
                0.0003511033719405532,
                -0.0026613848749548197
            ],
            "min" : [
                0.001790764625184238,
                0,
                -0.0029378922190517187
            ],
            "type" : "VEC3"
        },
        {
            "bufferView" : 5,
            "componentType" : 5126,
            "count" : 354,
            "type" : "VEC3"
        },
        {
            "bufferView" : 6,
            "componentType" : 5126,
            "count" : 354,
            "type" : "VEC2"
        },
        {
            "bufferView" : 7,
            "componentType" : 5123,
            "count" : 564,
            "type" : "SCALAR"
        },
        {
            "bufferView" : 8,
            "componentType" : 5126,
            "count" : 327,
            "max" : [
                0.002067330526188016,
                0.0003511033719405532,
                -0.0010438159806653857
            ],
            "min" : [
                0.001790764625184238,
                0,
                -0.0013203234411776066
            ],
            "type" : "VEC3"
        },
        {
            "bufferView" : 9,
            "componentType" : 5126,
            "count" : 327,
            "type" : "VEC3"
        },
        {
            "bufferView" : 10,
            "componentType" : 5126,
            "count" : 327,
            "type" : "VEC2"
        },
        {
            "bufferView" : 11,
            "componentType" : 5123,
            "count" : 564,
            "type" : "SCALAR"
        }
    ],
    "bufferViews" : [
        {
            "buffer" : 0,
            "byteLength" : 32796,
            "byteOffset" : 0
        },
        {
            "buffer" : 0,
            "byteLength" : 32796,
            "byteOffset" : 32796
        },
        {
            "buffer" : 0,
            "byteLength" : 21864,
            "byteOffset" : 65592
        },
        {
            "buffer" : 0,
            "byteLength" : 8928,
            "byteOffset" : 87456
        },
        {
            "buffer" : 0,
            "byteLength" : 4248,
            "byteOffset" : 96384
        },
        {
            "buffer" : 0,
            "byteLength" : 4248,
            "byteOffset" : 100632
        },
        {
            "buffer" : 0,
            "byteLength" : 2832,
            "byteOffset" : 104880
        },
        {
            "buffer" : 0,
            "byteLength" : 1128,
            "byteOffset" : 107712
        },
        {
            "buffer" : 0,
            "byteLength" : 3924,
            "byteOffset" : 108840
        },
        {
            "buffer" : 0,
            "byteLength" : 3924,
            "byteOffset" : 112764
        },
        {
            "buffer" : 0,
            "byteLength" : 2616,
            "byteOffset" : 116688
        },
        {
            "buffer" : 0,
            "byteLength" : 1128,
            "byteOffset" : 119304
        }
    ],
    "buffers" : [
        {
            "byteLength" : 120432,
            "uri" : "data:application/octet-stream;base64,"
        }
    ]
}
